<svg  width="24" height="24" viewBox="0 0 24 24" fill="none" xmlns="http://www.w3.org/2000/svg">
<rect x="0.5" y="0.5" width="23" height="23" rx="3.5" fill="white" stroke="#D9D9D9"/>
<path d="M9.625 6.875H9.5C9.56875 6.875 9.625 6.81875 9.625 6.75V6.875H14.375V6.75C14.375 6.81875 14.4312 6.875 14.5 6.875H14.375V8H15.5V6.75C15.5 6.19844 15.0516 5.75 14.5 5.75H9.5C8.94844 5.75 8.5 6.19844 8.5 6.75V8H9.625V6.875ZM17.5 8H6.5C6.22344 8 6 8.22344 6 8.5V9C6 9.06875 6.05625 9.125 6.125 9.125H7.06875L7.45469 17.2969C7.47969 17.8297 7.92031 18.25 8.45312 18.25H15.5469C16.0813 18.25 16.5203 17.8313 16.5453 17.2969L16.9312 9.125H17.875C17.9438 9.125 18 9.06875 18 9V8.5C18 8.22344 17.7766 8 17.5 8ZM15.4266 17.125H8.57344L8.19531 9.125H15.8047L15.4266 17.125Z" fill="#595959"/>
</svg>
