<svg width="24" height="24" viewBox="0 0 24 24" fill="none" xmlns="http://www.w3.org/2000/svg">
<rect x="0.5" y="0.5" width="23" height="23" rx="3.5" fill="white" stroke="#D9D9D9"/>
<path d="M11.9016 14.3281C11.9133 14.3431 11.9282 14.3551 11.9453 14.3635C11.9623 14.3718 11.981 14.3761 12 14.3761C12.019 14.3761 12.0377 14.3718 12.0547 14.3635C12.0718 14.3551 12.0867 14.3431 12.0984 14.3281L13.8484 12.1141C13.9125 12.0328 13.8547 11.9125 13.75 11.9125H12.5922V6.625C12.5922 6.55625 12.5359 6.5 12.4672 6.5H11.5297C11.4609 6.5 11.4047 6.55625 11.4047 6.625V11.9109H10.25C10.1453 11.9109 10.0875 12.0312 10.1516 12.1125L11.9016 14.3281ZM17.7188 13.7812H16.7812C16.7125 13.7812 16.6562 13.8375 16.6562 13.9062V16.3125H7.34375V13.9062C7.34375 13.8375 7.2875 13.7812 7.21875 13.7812H6.28125C6.2125 13.7812 6.15625 13.8375 6.15625 13.9062V17C6.15625 17.2766 6.37969 17.5 6.65625 17.5H17.3438C17.6203 17.5 17.8438 17.2766 17.8438 17V13.9062C17.8438 13.8375 17.7875 13.7812 17.7188 13.7812Z" fill="#595959"/>
</svg>
